<?xml version="1.0" encoding="utf-8"?>
<!-- Generator: Adobe Illustrator 22.1.0, SVG Export Plug-In . SVG Version: 6.00 Build 0)  -->
<svg version="1.1" id="Layer_1" xmlns="http://www.w3.org/2000/svg" xmlns:xlink="http://www.w3.org/1999/xlink" x="0px" y="0px"
	 viewBox="0 0 660.1 262.5" style="enable-background:new 0 0 660.1 262.5;" xml:space="preserve">
<style type="text/css">
	.st0{fill:#FFD939;}
	.st1{fill:url(#SVGID_1_);}
	.st2{fill:#1C2042;}
</style>
<title>Signhere_Horizontal_POS</title>
<g>
	<g>
		<path class="st0" d="M166.8,115.9c0-24.1-19.6-43.6-43.6-43.6H75.6c-4.1,0-7.5,3.4-7.5,7.5c0,4.1,3.4,7.5,7.5,7.5h47.6
			c15.8,0,28.6,12.8,28.6,28.6c0,15.8-12.8,28.6-28.6,28.6h-11.5c-4.1,0-7.5,3.4-7.5,7.5v13c0,5.8-4.7,10.5-10.5,10.5
			s-10.5-4.7-10.5-10.5v-31.1c0-5.8,4.7-10.5,10.5-10.5h29.6c4.1,0,7.5-3.4,7.5-7.5c0-4.1-3.4-7.5-7.5-7.5H93.6
			c-14.1,0-25.6,11.5-25.6,25.6V165c0,14.1,11.5,25.6,25.6,25.6c13.8,0,25.3-11.2,25.6-25c0-0.1,0-0.1,0-0.2V161
			c0-0.8,0.7-1.5,1.5-1.5h2.5C147.3,159.5,166.8,139.9,166.8,115.9z"/>
		<linearGradient id="SVGID_1_" gradientUnits="userSpaceOnUse" x1="188.7398" y1="123.9282" x2="80.6975" y2="120.6909">
			<stop  offset="0" style="stop-color:#F2B225"/>
			<stop  offset="1" style="stop-color:#F2B225;stop-opacity:0"/>
		</linearGradient>
		<path class="st1" d="M83.1,133.9c0-5.8,4.7-10.5,10.5-10.5h29.6c4.1,0,7.5-3.4,7.5-7.5c0-4.1-3.4-7.5-7.5-7.5H93.6
			c-14.1,0-25.6,11.5-25.6,25.6"/>
	</g>
	<g>
		<path class="st2" d="M288.6,99.3c4.7,3,8.3,7.3,10.9,12.8c2.6,5.5,3.9,11.8,3.9,19c0,7.1-1.3,13.3-3.8,18.7
			c-2.6,5.4-6.2,9.6-10.9,12.5c-4.7,2.9-10.1,4.4-16.1,4.4c-5.2,0-9.8-1.1-13.8-3.3c-4-2.2-7-5.4-9.1-9.6v26.3c0,2-0.6,3.6-1.9,4.8
			c-1.3,1.2-3,1.8-5,1.8c-2.2,0-4-0.6-5.3-1.8c-1.4-1.2-2.1-2.9-2.1-5V102c0-2.1,0.7-3.8,2-5c1.3-1.3,3.1-1.9,5.3-1.9
			c2.1,0,3.8,0.6,5.1,1.9c1.3,1.3,2,3,2,5v5.8c2.1-4.2,5.1-7.4,9.1-9.7c4-2.3,8.6-3.4,13.8-3.4C278.6,94.8,283.9,96.3,288.6,99.3z
			 M283.7,149.1c3.4-4.2,5.1-10.2,5.1-18c0-7.9-1.7-14-5.2-18.3c-3.5-4.4-8.3-6.5-14.4-6.5c-6.2,0-11.1,2.1-14.4,6.4
			c-3.4,4.3-5,10.3-5,18.2c0,7.9,1.7,13.9,5,18.2c3.4,4.3,8.2,6.4,14.4,6.4C275.4,155.4,280.3,153.3,283.7,149.1z"/>
		<path class="st2" d="M331.5,162.3c-5.2-2.9-9.1-7.1-11.9-12.6c-2.8-5.4-4.2-11.8-4.2-19c0-7.3,1.4-13.7,4.2-19.1
			c2.8-5.4,6.8-9.6,11.9-12.6c5.2-2.9,11.1-4.4,18-4.4c6.8,0,12.8,1.5,18,4.4c5.2,2.9,9.1,7.1,11.9,12.6c2.8,5.4,4.2,11.8,4.2,19.1
			c0,7.2-1.4,13.5-4.2,19c-2.8,5.4-6.8,9.6-11.9,12.6c-5.2,2.9-11.1,4.4-18,4.4C342.6,166.7,336.6,165.3,331.5,162.3z M364,149.1
			c3.4-4.2,5-10.3,5-18.3c0-8-1.7-14-5.1-18.2c-3.4-4.2-8.2-6.3-14.5-6.3c-6.2,0-11.1,2.1-14.5,6.3c-3.4,4.2-5.1,10.3-5.1,18.2
			c0,8,1.7,14.2,5,18.3c3.4,4.2,8.2,6.2,14.6,6.2C355.8,155.4,360.6,153.3,364,149.1z"/>
		<path class="st2" d="M461.6,122.7v36.9c0,2.2-0.6,3.9-1.9,5c-1.3,1.2-3.1,1.8-5.3,1.8c-2.2,0-3.9-0.6-5.2-1.8
			c-1.3-1.2-1.9-2.9-1.9-5v-36.2c0-5.9-1.2-10.2-3.5-12.9c-2.3-2.7-5.9-4.1-10.9-4.1c-5.8,0-10.4,1.8-13.9,5.4
			c-3.5,3.6-5.3,8.4-5.3,14.5v33.4c0,2.1-0.6,3.7-1.9,5c-1.3,1.2-3,1.8-5.2,1.8c-2.2,0-3.9-0.6-5.3-1.8c-1.3-1.2-2-2.9-2-5v-57.8
			c0-2,0.7-3.6,2.1-4.9c1.4-1.3,3.1-1.9,5.2-1.9c2.1,0,3.7,0.6,5,1.8c1.2,1.2,1.8,2.8,1.8,4.8v5.8c2.3-4.2,5.4-7.3,9.5-9.5
			c4.1-2.2,8.7-3.3,13.8-3.3C453.3,94.8,461.6,104.1,461.6,122.7z"/>
		<path class="st2" d="M480,96.5V83.1c0-2.2,0.6-3.9,1.9-5.1c1.3-1.2,3-1.8,5.2-1.8c2.2,0,3.9,0.6,5.3,1.8c1.3,1.2,2,2.9,2,5.1v13.4
			h14.1c2,0,3.5,0.5,4.6,1.5c1.1,1,1.6,2.3,1.6,4c0,1.8-0.5,3.2-1.6,4.1c-1.1,0.9-2.6,1.4-4.6,1.4h-14.1v34.4c0,4.5,0.9,7.7,2.8,9.8
			c1.8,2.1,4.7,3.3,8.4,3.5l4,0.3c2.1,0.2,3.6,0.7,4.5,1.6c0.9,0.9,1.3,2.2,1.3,3.8c0,1.9-0.7,3.3-2.2,4.3c-1.5,1-3.6,1.4-6.5,1.2
			l-3.8-0.3c-7.7-0.6-13.4-2.9-17.2-7c-3.8-4.1-5.7-10.2-5.7-18.2v-33.4V96.5z"/>
		<path class="st2" d="M539.9,162.3c-5.2-2.9-9.1-7.1-11.9-12.6c-2.8-5.4-4.2-11.8-4.2-19c0-7.3,1.4-13.7,4.2-19.1
			c2.8-5.4,6.8-9.6,11.9-12.6c5.2-2.9,11.1-4.4,18-4.4c6.8,0,12.8,1.5,18,4.4c5.2,2.9,9.1,7.1,11.9,12.6c2.8,5.4,4.2,11.8,4.2,19.1
			c0,7.2-1.4,13.5-4.2,19c-2.8,5.4-6.8,9.6-11.9,12.6c-5.2,2.9-11.1,4.4-18,4.4C551,166.7,545.1,165.3,539.9,162.3z M572.4,149.1
			c3.4-4.2,5-10.3,5-18.3c0-8-1.7-14-5.1-18.2c-3.4-4.2-8.2-6.3-14.5-6.3c-6.2,0-11.1,2.1-14.5,6.3c-3.4,4.2-5.1,10.3-5.1,18.2
			c0,8,1.7,14.2,5,18.3c3.4,4.2,8.2,6.2,14.6,6.2C564.2,155.4,569.1,153.3,572.4,149.1z"/>
	</g>
</g>
</svg>
